<mxfile host="app.diagrams.net" modified="2023-10-10T16:14:45.794Z" agent="Mozilla/5.0 (Windows NT 10.0; Win64; x64) AppleWebKit/537.36 (KHTML, like Gecko) Chrome/117.0.0.0 Safari/537.36" etag="V1RCGAnerUUrL75MN6q4" version="22.0.0" type="device">
  <diagram id="R2lEEEUBdFMjLlhIrx00" name="Page-1">
    <mxGraphModel dx="521" dy="222" grid="1" gridSize="10" guides="1" tooltips="1" connect="1" arrows="1" fold="1" page="1" pageScale="1" pageWidth="850" pageHeight="1100" math="0" shadow="0" extFonts="Permanent Marker^https://fonts.googleapis.com/css?family=Permanent+Marker">
      <root>
        <mxCell id="0" />
        <mxCell id="1" parent="0" />
        <mxCell id="mC_kL1oAZcA5nssmCbRN-1" value="Sistem Rental Kostum Cosplay" style="ellipse;whiteSpace=wrap;html=1;aspect=fixed;fillColor=#A9C4EB;" vertex="1" parent="1">
          <mxGeometry x="360" y="230" width="130" height="130" as="geometry" />
        </mxCell>
        <mxCell id="mC_kL1oAZcA5nssmCbRN-3" style="edgeStyle=orthogonalEdgeStyle;rounded=0;orthogonalLoop=1;jettySize=auto;html=1;" edge="1" parent="1" source="mC_kL1oAZcA5nssmCbRN-2" target="mC_kL1oAZcA5nssmCbRN-1">
          <mxGeometry relative="1" as="geometry">
            <Array as="points">
              <mxPoint x="400" y="200" />
            </Array>
          </mxGeometry>
        </mxCell>
        <mxCell id="mC_kL1oAZcA5nssmCbRN-4" value="Data Wishlist" style="edgeLabel;html=1;align=center;verticalAlign=middle;resizable=0;points=[];" vertex="1" connectable="0" parent="mC_kL1oAZcA5nssmCbRN-3">
          <mxGeometry x="-0.3002" y="-1" relative="1" as="geometry">
            <mxPoint x="5" as="offset" />
          </mxGeometry>
        </mxCell>
        <mxCell id="mC_kL1oAZcA5nssmCbRN-2" value="Pemilik" style="rounded=0;whiteSpace=wrap;html=1;fillColor=#F19C99;" vertex="1" parent="1">
          <mxGeometry x="130" y="150" width="120" height="80" as="geometry" />
        </mxCell>
        <mxCell id="mC_kL1oAZcA5nssmCbRN-5" style="edgeStyle=orthogonalEdgeStyle;rounded=0;orthogonalLoop=1;jettySize=auto;html=1;" edge="1" parent="1" target="mC_kL1oAZcA5nssmCbRN-1">
          <mxGeometry relative="1" as="geometry">
            <mxPoint x="249.9999999999999" y="220" as="sourcePoint" />
            <mxPoint x="408" y="240" as="targetPoint" />
            <Array as="points">
              <mxPoint x="380" y="220" />
            </Array>
          </mxGeometry>
        </mxCell>
        <mxCell id="mC_kL1oAZcA5nssmCbRN-6" value="Data Pengguna" style="edgeLabel;html=1;align=center;verticalAlign=middle;resizable=0;points=[];" vertex="1" connectable="0" parent="mC_kL1oAZcA5nssmCbRN-5">
          <mxGeometry x="-0.4302" relative="1" as="geometry">
            <mxPoint x="21" as="offset" />
          </mxGeometry>
        </mxCell>
        <mxCell id="mC_kL1oAZcA5nssmCbRN-7" style="edgeStyle=orthogonalEdgeStyle;rounded=0;orthogonalLoop=1;jettySize=auto;html=1;entryX=0.668;entryY=0.994;entryDx=0;entryDy=0;entryPerimeter=0;" edge="1" parent="1" source="mC_kL1oAZcA5nssmCbRN-1" target="mC_kL1oAZcA5nssmCbRN-2">
          <mxGeometry relative="1" as="geometry">
            <Array as="points">
              <mxPoint x="210" y="280" />
            </Array>
          </mxGeometry>
        </mxCell>
        <mxCell id="mC_kL1oAZcA5nssmCbRN-8" value="Info Laporan Penyewaan" style="edgeLabel;html=1;align=center;verticalAlign=middle;resizable=0;points=[];" vertex="1" connectable="0" parent="mC_kL1oAZcA5nssmCbRN-7">
          <mxGeometry x="-0.2283" relative="1" as="geometry">
            <mxPoint x="-4" as="offset" />
          </mxGeometry>
        </mxCell>
        <mxCell id="mC_kL1oAZcA5nssmCbRN-9" style="edgeStyle=orthogonalEdgeStyle;rounded=0;orthogonalLoop=1;jettySize=auto;html=1;entryX=0.5;entryY=1;entryDx=0;entryDy=0;" edge="1" parent="1" source="mC_kL1oAZcA5nssmCbRN-1" target="mC_kL1oAZcA5nssmCbRN-2">
          <mxGeometry relative="1" as="geometry">
            <Array as="points">
              <mxPoint x="190" y="300" />
            </Array>
          </mxGeometry>
        </mxCell>
        <mxCell id="mC_kL1oAZcA5nssmCbRN-10" value="Info Laporan Omset" style="edgeLabel;html=1;align=center;verticalAlign=middle;resizable=0;points=[];" vertex="1" connectable="0" parent="mC_kL1oAZcA5nssmCbRN-9">
          <mxGeometry x="0.0081" y="-1" relative="1" as="geometry">
            <mxPoint x="31" y="1" as="offset" />
          </mxGeometry>
        </mxCell>
        <mxCell id="mC_kL1oAZcA5nssmCbRN-11" style="edgeStyle=orthogonalEdgeStyle;rounded=0;orthogonalLoop=1;jettySize=auto;html=1;" edge="1" parent="1" source="mC_kL1oAZcA5nssmCbRN-2" target="mC_kL1oAZcA5nssmCbRN-1">
          <mxGeometry relative="1" as="geometry">
            <mxPoint x="410" y="240" as="targetPoint" />
            <Array as="points">
              <mxPoint x="410" y="180" />
            </Array>
          </mxGeometry>
        </mxCell>
        <mxCell id="mC_kL1oAZcA5nssmCbRN-12" value="Validasi Laporan Penyewaan" style="edgeLabel;html=1;align=center;verticalAlign=middle;resizable=0;points=[];" vertex="1" connectable="0" parent="mC_kL1oAZcA5nssmCbRN-11">
          <mxGeometry x="-0.3333" y="1" relative="1" as="geometry">
            <mxPoint x="10" as="offset" />
          </mxGeometry>
        </mxCell>
        <mxCell id="mC_kL1oAZcA5nssmCbRN-13" style="edgeStyle=orthogonalEdgeStyle;rounded=0;orthogonalLoop=1;jettySize=auto;html=1;exitX=1;exitY=0.25;exitDx=0;exitDy=0;" edge="1" parent="1" source="mC_kL1oAZcA5nssmCbRN-2" target="mC_kL1oAZcA5nssmCbRN-1">
          <mxGeometry relative="1" as="geometry">
            <mxPoint x="420" y="240" as="targetPoint" />
            <Array as="points">
              <mxPoint x="250" y="160" />
              <mxPoint x="420" y="160" />
            </Array>
          </mxGeometry>
        </mxCell>
        <mxCell id="mC_kL1oAZcA5nssmCbRN-14" value="Validasi Laporan Omset" style="edgeLabel;html=1;align=center;verticalAlign=middle;resizable=0;points=[];" vertex="1" connectable="0" parent="mC_kL1oAZcA5nssmCbRN-13">
          <mxGeometry x="-0.6146" y="1" relative="1" as="geometry">
            <mxPoint x="45" as="offset" />
          </mxGeometry>
        </mxCell>
        <mxCell id="mC_kL1oAZcA5nssmCbRN-15" value="Penyewa" style="rounded=0;whiteSpace=wrap;html=1;fillColor=#B9E0A5;" vertex="1" parent="1">
          <mxGeometry x="580" y="150" width="120" height="80" as="geometry" />
        </mxCell>
        <mxCell id="mC_kL1oAZcA5nssmCbRN-17" style="edgeStyle=orthogonalEdgeStyle;rounded=0;orthogonalLoop=1;jettySize=auto;html=1;entryX=-0.002;entryY=0.121;entryDx=0;entryDy=0;entryPerimeter=0;" edge="1" parent="1" source="mC_kL1oAZcA5nssmCbRN-1" target="mC_kL1oAZcA5nssmCbRN-15">
          <mxGeometry relative="1" as="geometry">
            <Array as="points">
              <mxPoint x="430" y="160" />
              <mxPoint x="518" y="160" />
            </Array>
          </mxGeometry>
        </mxCell>
        <mxCell id="mC_kL1oAZcA5nssmCbRN-18" value="Informasi Kostum" style="edgeLabel;html=1;align=center;verticalAlign=middle;resizable=0;points=[];" vertex="1" connectable="0" parent="mC_kL1oAZcA5nssmCbRN-17">
          <mxGeometry x="0.2424" relative="1" as="geometry">
            <mxPoint x="9" as="offset" />
          </mxGeometry>
        </mxCell>
        <mxCell id="mC_kL1oAZcA5nssmCbRN-20" style="edgeStyle=orthogonalEdgeStyle;rounded=0;orthogonalLoop=1;jettySize=auto;html=1;exitX=0.619;exitY=0.016;exitDx=0;exitDy=0;exitPerimeter=0;" edge="1" parent="1" source="mC_kL1oAZcA5nssmCbRN-1">
          <mxGeometry relative="1" as="geometry">
            <mxPoint x="440" y="230" as="sourcePoint" />
            <mxPoint x="580" y="180" as="targetPoint" />
            <Array as="points">
              <mxPoint x="441" y="180" />
            </Array>
          </mxGeometry>
        </mxCell>
        <mxCell id="mC_kL1oAZcA5nssmCbRN-21" value="Informasi Harga" style="edgeLabel;html=1;align=center;verticalAlign=middle;resizable=0;points=[];" vertex="1" connectable="0" parent="mC_kL1oAZcA5nssmCbRN-20">
          <mxGeometry x="0.2424" relative="1" as="geometry">
            <mxPoint x="-9" as="offset" />
          </mxGeometry>
        </mxCell>
        <mxCell id="mC_kL1oAZcA5nssmCbRN-22" style="edgeStyle=orthogonalEdgeStyle;rounded=0;orthogonalLoop=1;jettySize=auto;html=1;exitX=0.692;exitY=0.04;exitDx=0;exitDy=0;exitPerimeter=0;" edge="1" parent="1" source="mC_kL1oAZcA5nssmCbRN-1">
          <mxGeometry relative="1" as="geometry">
            <mxPoint x="450" y="230" as="sourcePoint" />
            <mxPoint x="580" y="200" as="targetPoint" />
            <Array as="points">
              <mxPoint x="450" y="200" />
            </Array>
          </mxGeometry>
        </mxCell>
        <mxCell id="mC_kL1oAZcA5nssmCbRN-23" value="Informasi Penyewaan" style="edgeLabel;html=1;align=center;verticalAlign=middle;resizable=0;points=[];" vertex="1" connectable="0" parent="mC_kL1oAZcA5nssmCbRN-22">
          <mxGeometry x="0.2424" relative="1" as="geometry">
            <mxPoint x="-6" as="offset" />
          </mxGeometry>
        </mxCell>
        <mxCell id="mC_kL1oAZcA5nssmCbRN-25" style="edgeStyle=orthogonalEdgeStyle;rounded=0;orthogonalLoop=1;jettySize=auto;html=1;" edge="1" parent="1" source="mC_kL1oAZcA5nssmCbRN-15" target="mC_kL1oAZcA5nssmCbRN-1">
          <mxGeometry relative="1" as="geometry">
            <Array as="points">
              <mxPoint x="590" y="260" />
            </Array>
          </mxGeometry>
        </mxCell>
        <mxCell id="mC_kL1oAZcA5nssmCbRN-26" value="Data Pengguna" style="edgeLabel;html=1;align=center;verticalAlign=middle;resizable=0;points=[];" vertex="1" connectable="0" parent="mC_kL1oAZcA5nssmCbRN-25">
          <mxGeometry x="0.1581" y="2" relative="1" as="geometry">
            <mxPoint y="-2" as="offset" />
          </mxGeometry>
        </mxCell>
        <mxCell id="mC_kL1oAZcA5nssmCbRN-27" style="edgeStyle=orthogonalEdgeStyle;rounded=0;orthogonalLoop=1;jettySize=auto;html=1;exitX=0.165;exitY=1.004;exitDx=0;exitDy=0;exitPerimeter=0;entryX=0.99;entryY=0.378;entryDx=0;entryDy=0;entryPerimeter=0;" edge="1" parent="1" source="mC_kL1oAZcA5nssmCbRN-15" target="mC_kL1oAZcA5nssmCbRN-1">
          <mxGeometry relative="1" as="geometry">
            <mxPoint x="610" y="240" as="sourcePoint" />
            <mxPoint x="500" y="280" as="targetPoint" />
            <Array as="points">
              <mxPoint x="600" y="279" />
            </Array>
          </mxGeometry>
        </mxCell>
        <mxCell id="mC_kL1oAZcA5nssmCbRN-28" value="Login/Logout" style="edgeLabel;html=1;align=center;verticalAlign=middle;resizable=0;points=[];" vertex="1" connectable="0" parent="mC_kL1oAZcA5nssmCbRN-27">
          <mxGeometry x="0.1581" y="2" relative="1" as="geometry">
            <mxPoint y="-2" as="offset" />
          </mxGeometry>
        </mxCell>
        <mxCell id="mC_kL1oAZcA5nssmCbRN-30" value="Admin" style="rounded=0;whiteSpace=wrap;html=1;fillColor=#E6D0DE;" vertex="1" parent="1">
          <mxGeometry x="580" y="370" width="120" height="80" as="geometry" />
        </mxCell>
        <mxCell id="mC_kL1oAZcA5nssmCbRN-32" style="edgeStyle=orthogonalEdgeStyle;rounded=0;orthogonalLoop=1;jettySize=auto;html=1;entryX=1.001;entryY=0.551;entryDx=0;entryDy=0;entryPerimeter=0;" edge="1" parent="1" source="mC_kL1oAZcA5nssmCbRN-30" target="mC_kL1oAZcA5nssmCbRN-1">
          <mxGeometry relative="1" as="geometry">
            <Array as="points">
              <mxPoint x="690" y="302" />
            </Array>
          </mxGeometry>
        </mxCell>
        <mxCell id="mC_kL1oAZcA5nssmCbRN-33" value="Data Pengguna" style="edgeLabel;html=1;align=center;verticalAlign=middle;resizable=0;points=[];" vertex="1" connectable="0" parent="mC_kL1oAZcA5nssmCbRN-32">
          <mxGeometry x="0.2942" relative="1" as="geometry">
            <mxPoint as="offset" />
          </mxGeometry>
        </mxCell>
        <mxCell id="mC_kL1oAZcA5nssmCbRN-35" style="edgeStyle=orthogonalEdgeStyle;rounded=0;orthogonalLoop=1;jettySize=auto;html=1;" edge="1" parent="1" target="mC_kL1oAZcA5nssmCbRN-1">
          <mxGeometry relative="1" as="geometry">
            <mxPoint x="680" y="370" as="sourcePoint" />
            <mxPoint x="489.99999999999994" y="319.99999999999994" as="targetPoint" />
            <Array as="points">
              <mxPoint x="680" y="320" />
            </Array>
          </mxGeometry>
        </mxCell>
        <mxCell id="mC_kL1oAZcA5nssmCbRN-36" value="Data Penyewaan" style="edgeLabel;html=1;align=center;verticalAlign=middle;resizable=0;points=[];" vertex="1" connectable="0" parent="mC_kL1oAZcA5nssmCbRN-35">
          <mxGeometry x="0.2942" relative="1" as="geometry">
            <mxPoint x="9" as="offset" />
          </mxGeometry>
        </mxCell>
        <mxCell id="mC_kL1oAZcA5nssmCbRN-37" style="edgeStyle=orthogonalEdgeStyle;rounded=0;orthogonalLoop=1;jettySize=auto;html=1;exitX=0.75;exitY=0;exitDx=0;exitDy=0;entryX=0.895;entryY=0.807;entryDx=0;entryDy=0;entryPerimeter=0;" edge="1" parent="1" source="mC_kL1oAZcA5nssmCbRN-30" target="mC_kL1oAZcA5nssmCbRN-1">
          <mxGeometry relative="1" as="geometry">
            <mxPoint x="659.8399999999999" y="369.99999999999994" as="sourcePoint" />
            <mxPoint x="480" y="338.56" as="targetPoint" />
            <Array as="points">
              <mxPoint x="670" y="335" />
            </Array>
          </mxGeometry>
        </mxCell>
        <mxCell id="mC_kL1oAZcA5nssmCbRN-38" value="Data Kostum" style="edgeLabel;html=1;align=center;verticalAlign=middle;resizable=0;points=[];" vertex="1" connectable="0" parent="mC_kL1oAZcA5nssmCbRN-37">
          <mxGeometry x="0.2942" relative="1" as="geometry">
            <mxPoint x="23" as="offset" />
          </mxGeometry>
        </mxCell>
        <mxCell id="mC_kL1oAZcA5nssmCbRN-43" style="edgeStyle=orthogonalEdgeStyle;rounded=0;orthogonalLoop=1;jettySize=auto;html=1;exitX=0.577;exitY=-0.006;exitDx=0;exitDy=0;exitPerimeter=0;" edge="1" parent="1" source="mC_kL1oAZcA5nssmCbRN-30" target="mC_kL1oAZcA5nssmCbRN-1">
          <mxGeometry relative="1" as="geometry">
            <mxPoint x="580" y="370" as="sourcePoint" />
            <mxPoint x="385" y="380" as="targetPoint" />
            <Array as="points">
              <mxPoint x="649" y="352" />
            </Array>
          </mxGeometry>
        </mxCell>
        <mxCell id="mC_kL1oAZcA5nssmCbRN-44" value="Data Harga" style="edgeLabel;html=1;align=center;verticalAlign=middle;resizable=0;points=[];" vertex="1" connectable="0" parent="mC_kL1oAZcA5nssmCbRN-43">
          <mxGeometry x="0.2942" relative="1" as="geometry">
            <mxPoint x="50" as="offset" />
          </mxGeometry>
        </mxCell>
        <mxCell id="mC_kL1oAZcA5nssmCbRN-45" style="edgeStyle=orthogonalEdgeStyle;rounded=0;orthogonalLoop=1;jettySize=auto;html=1;exitX=0.423;exitY=0.991;exitDx=0;exitDy=0;exitPerimeter=0;entryX=0;entryY=0.5;entryDx=0;entryDy=0;" edge="1" parent="1" target="mC_kL1oAZcA5nssmCbRN-30">
          <mxGeometry relative="1" as="geometry">
            <mxPoint x="415.18" y="360" as="sourcePoint" />
            <mxPoint x="580" y="400" as="targetPoint" />
            <Array as="points">
              <mxPoint x="415" y="410" />
            </Array>
          </mxGeometry>
        </mxCell>
        <mxCell id="mC_kL1oAZcA5nssmCbRN-46" value="Informasi Kostum" style="edgeLabel;html=1;align=center;verticalAlign=middle;resizable=0;points=[];" vertex="1" connectable="0" parent="mC_kL1oAZcA5nssmCbRN-45">
          <mxGeometry x="0.2424" relative="1" as="geometry">
            <mxPoint x="-2" as="offset" />
          </mxGeometry>
        </mxCell>
        <mxCell id="mC_kL1oAZcA5nssmCbRN-47" style="edgeStyle=orthogonalEdgeStyle;rounded=0;orthogonalLoop=1;jettySize=auto;html=1;exitX=0.368;exitY=0.985;exitDx=0;exitDy=0;exitPerimeter=0;" edge="1" parent="1" source="mC_kL1oAZcA5nssmCbRN-1">
          <mxGeometry relative="1" as="geometry">
            <mxPoint x="426" y="350" as="sourcePoint" />
            <mxPoint x="580" y="430" as="targetPoint" />
            <Array as="points">
              <mxPoint x="408" y="430" />
              <mxPoint x="580" y="430" />
            </Array>
          </mxGeometry>
        </mxCell>
        <mxCell id="mC_kL1oAZcA5nssmCbRN-48" value="Informasi Harga" style="edgeLabel;html=1;align=center;verticalAlign=middle;resizable=0;points=[];" vertex="1" connectable="0" parent="mC_kL1oAZcA5nssmCbRN-47">
          <mxGeometry x="0.2424" relative="1" as="geometry">
            <mxPoint x="9" as="offset" />
          </mxGeometry>
        </mxCell>
        <mxCell id="mC_kL1oAZcA5nssmCbRN-49" style="edgeStyle=orthogonalEdgeStyle;rounded=0;orthogonalLoop=1;jettySize=auto;html=1;exitX=0.31;exitY=0.957;exitDx=0;exitDy=0;exitPerimeter=0;entryX=0.25;entryY=1;entryDx=0;entryDy=0;" edge="1" parent="1" source="mC_kL1oAZcA5nssmCbRN-1" target="mC_kL1oAZcA5nssmCbRN-30">
          <mxGeometry relative="1" as="geometry">
            <mxPoint x="400" y="360" as="sourcePoint" />
            <mxPoint x="580" y="440" as="targetPoint" />
            <Array as="points">
              <mxPoint x="400" y="480" />
              <mxPoint x="610" y="480" />
            </Array>
          </mxGeometry>
        </mxCell>
        <mxCell id="mC_kL1oAZcA5nssmCbRN-50" value="Informasi Penyewaan" style="edgeLabel;html=1;align=center;verticalAlign=middle;resizable=0;points=[];" vertex="1" connectable="0" parent="mC_kL1oAZcA5nssmCbRN-49">
          <mxGeometry x="0.2424" relative="1" as="geometry">
            <mxPoint x="24" as="offset" />
          </mxGeometry>
        </mxCell>
        <mxCell id="mC_kL1oAZcA5nssmCbRN-51" style="edgeStyle=orthogonalEdgeStyle;rounded=0;orthogonalLoop=1;jettySize=auto;html=1;" edge="1" parent="1" target="mC_kL1oAZcA5nssmCbRN-15">
          <mxGeometry relative="1" as="geometry">
            <mxPoint x="460" y="240" as="sourcePoint" />
            <mxPoint x="570" y="210" as="targetPoint" />
            <Array as="points">
              <mxPoint x="460" y="220" />
            </Array>
          </mxGeometry>
        </mxCell>
        <mxCell id="mC_kL1oAZcA5nssmCbRN-52" value="Info Notifikasi" style="edgeLabel;html=1;align=center;verticalAlign=middle;resizable=0;points=[];" vertex="1" connectable="0" parent="mC_kL1oAZcA5nssmCbRN-51">
          <mxGeometry x="0.2424" relative="1" as="geometry">
            <mxPoint x="-6" as="offset" />
          </mxGeometry>
        </mxCell>
        <mxCell id="mC_kL1oAZcA5nssmCbRN-53" style="edgeStyle=orthogonalEdgeStyle;rounded=0;orthogonalLoop=1;jettySize=auto;html=1;" edge="1" parent="1" target="mC_kL1oAZcA5nssmCbRN-30">
          <mxGeometry relative="1" as="geometry">
            <mxPoint x="425" y="360" as="sourcePoint" />
            <mxPoint x="560" y="390" as="targetPoint" />
            <Array as="points">
              <mxPoint x="425" y="390" />
            </Array>
          </mxGeometry>
        </mxCell>
        <mxCell id="mC_kL1oAZcA5nssmCbRN-54" value="Informasi Wishlist" style="edgeLabel;html=1;align=center;verticalAlign=middle;resizable=0;points=[];" vertex="1" connectable="0" parent="mC_kL1oAZcA5nssmCbRN-53">
          <mxGeometry x="0.2424" relative="1" as="geometry">
            <mxPoint x="-13" as="offset" />
          </mxGeometry>
        </mxCell>
        <mxCell id="mC_kL1oAZcA5nssmCbRN-55" style="edgeStyle=orthogonalEdgeStyle;rounded=0;orthogonalLoop=1;jettySize=auto;html=1;entryX=0.25;entryY=1;entryDx=0;entryDy=0;exitX=0.019;exitY=0.727;exitDx=0;exitDy=0;exitPerimeter=0;" edge="1" parent="1" source="mC_kL1oAZcA5nssmCbRN-1" target="mC_kL1oAZcA5nssmCbRN-2">
          <mxGeometry relative="1" as="geometry">
            <mxPoint x="370" y="310" as="sourcePoint" />
            <mxPoint x="200" y="240" as="targetPoint" />
            <Array as="points">
              <mxPoint x="160" y="324" />
            </Array>
          </mxGeometry>
        </mxCell>
        <mxCell id="mC_kL1oAZcA5nssmCbRN-56" value="Info Notifikasi" style="edgeLabel;html=1;align=center;verticalAlign=middle;resizable=0;points=[];" vertex="1" connectable="0" parent="mC_kL1oAZcA5nssmCbRN-55">
          <mxGeometry x="0.0081" y="-1" relative="1" as="geometry">
            <mxPoint x="31" y="1" as="offset" />
          </mxGeometry>
        </mxCell>
        <mxCell id="mC_kL1oAZcA5nssmCbRN-57" style="edgeStyle=orthogonalEdgeStyle;rounded=0;orthogonalLoop=1;jettySize=auto;html=1;exitX=-0.008;exitY=0.05;exitDx=0;exitDy=0;exitPerimeter=0;entryX=0.638;entryY=0.995;entryDx=0;entryDy=0;entryPerimeter=0;" edge="1" parent="1" source="mC_kL1oAZcA5nssmCbRN-30" target="mC_kL1oAZcA5nssmCbRN-1">
          <mxGeometry relative="1" as="geometry">
            <mxPoint x="659" y="380" as="sourcePoint" />
            <mxPoint x="466" y="362" as="targetPoint" />
            <Array as="points">
              <mxPoint x="443" y="374" />
            </Array>
          </mxGeometry>
        </mxCell>
        <mxCell id="mC_kL1oAZcA5nssmCbRN-58" value="Data Notifikasi" style="edgeLabel;html=1;align=center;verticalAlign=middle;resizable=0;points=[];" vertex="1" connectable="0" parent="mC_kL1oAZcA5nssmCbRN-57">
          <mxGeometry x="0.2942" relative="1" as="geometry">
            <mxPoint x="10" y="-2" as="offset" />
          </mxGeometry>
        </mxCell>
        <mxCell id="mC_kL1oAZcA5nssmCbRN-61" style="edgeStyle=orthogonalEdgeStyle;rounded=0;orthogonalLoop=1;jettySize=auto;html=1;" edge="1" parent="1" source="mC_kL1oAZcA5nssmCbRN-1">
          <mxGeometry relative="1" as="geometry">
            <mxPoint x="640" y="450" as="targetPoint" />
            <Array as="points">
              <mxPoint x="380" y="500" />
              <mxPoint x="640" y="500" />
              <mxPoint x="640" y="453" />
            </Array>
          </mxGeometry>
        </mxCell>
        <mxCell id="mC_kL1oAZcA5nssmCbRN-62" value="Informasi Validasi Omset" style="edgeLabel;html=1;align=center;verticalAlign=middle;resizable=0;points=[];" vertex="1" connectable="0" parent="mC_kL1oAZcA5nssmCbRN-61">
          <mxGeometry x="0.1254" y="-3" relative="1" as="geometry">
            <mxPoint x="5" y="-3" as="offset" />
          </mxGeometry>
        </mxCell>
      </root>
    </mxGraphModel>
  </diagram>
</mxfile>
